<?xml version="1.0" encoding="UTF-8"?>
<svg id="_图层_2" data-name="图层 2" xmlns="http://www.w3.org/2000/svg" xmlns:xlink="http://www.w3.org/1999/xlink" viewBox="0 0 192.2 192.2">
  <defs>
    <style>
      .cls-1 {
        fill: url(#_未命名的渐变_39);
      }

      .cls-2 {
        fill: url(#_未命名的渐变_236);
      }

      .cls-3 {
        fill: #317b3d;
      }

      .cls-4 {
        fill: #efefef;
      }

      .cls-5 {
        fill: url(#_未命名的渐变_151);
      }
    </style>
    <linearGradient id="_未命名的渐变_236" data-name="未命名的渐变 236" x1="96.11" y1="97.57" x2="96.11" y2="85.95" gradientUnits="userSpaceOnUse">
      <stop offset="0" stop-color="#fff" stop-opacity="0"/>
      <stop offset="0" stop-color="#fdfefe" stop-opacity="0"/>
      <stop offset=".37" stop-color="#c1e2d4" stop-opacity=".43"/>
      <stop offset=".66" stop-color="#94ceb6" stop-opacity=".74"/>
      <stop offset=".88" stop-color="#79c1a4" stop-opacity=".93"/>
      <stop offset="1" stop-color="#6fbd9d"/>
    </linearGradient>
    <linearGradient id="_未命名的渐变_39" data-name="未命名的渐变 39" x1="28.44" y1="52.76" x2="137.76" y2="52.76" gradientUnits="userSpaceOnUse">
      <stop offset="0" stop-color="#69bc72"/>
      <stop offset="1" stop-color="#71c4b8"/>
    </linearGradient>
    <linearGradient id="_未命名的渐变_151" data-name="未命名的渐变 151" x1="96.11" y1="48" x2="163.77" y2="48" gradientUnits="userSpaceOnUse">
      <stop offset="0" stop-color="#ccc"/>
      <stop offset="1" stop-color="#71c4b8"/>
    </linearGradient>
  </defs>
  <g id="_图层_1-2" data-name="图层 1">
    <circle class="cls-3" cx="96.1" cy="96.1" r="88.09"/>
    <g>
      <path class="cls-4" d="M184.37,96.1c0,.49-.01,.97-.02,1.46H101.1c-1.77-.97-2.48-1.93-2.9-2.9-.38-.97-.32-1.94,.08-2.9,.39-.97,1.12-1.94,2.21-2.9,1.18-.97,2.56-1.94,4.98-2.9h-18.71c2.42,.97,3.8,1.94,4.98,2.9,1.09,.97,1.82,1.94,2.21,2.9,.4,.97,.46,1.94,.08,2.9-.41,.97-1.13,1.93-2.9,2.9h-31.17l-17.49,17.82H9.95c-1-4.49-1.66-9.1-1.94-13.82h26.59c.73,1.49,2.27,2.51,4.04,2.51,2.49,0,4.51-2.02,4.51-4.51s-2.02-4.51-4.51-4.51c-1.77,0-3.31,1.02-4.04,2.51H7.85c0-.49-.02-.97-.02-1.46C7.83,47.35,47.35,7.83,96.1,7.83s88.27,39.52,88.27,88.27Zm-65.84,40.77l14.81,14.34c1.56-.56,3.38-.22,4.65,1.01,1.79,1.73,1.84,4.59,.1,6.38-1.73,1.79-4.59,1.83-6.38,.1-1.27-1.23-1.66-3.03-1.15-4.61l-18.36-17.78,.08-.09-14.17-14.17v29.64l27.58,27.59c21.09-7.5,38.48-22.79,48.71-42.41h-55.87Zm-56.9-35.31l-17.49,17.82H10.94c4.14,15.17,12.21,28.7,23.06,39.45l21.97-21.96h-19.06c-.72,1.49-2.26,2.51-4.03,2.51-2.49,0-4.51-2.02-4.51-4.51s2.02-4.51,4.51-4.51c1.77,0,3.31,1.02,4.03,2.51h23.05l31.32-31.31h-29.65Zm100.57,20.17c-1.77,0-3.3-1.02-4.03-2.51h-27.59l-17.66-17.66h-14.81v14.83l16.48,16.48h61.77c4.42-9.63,7.15-20.19,7.83-31.31H118.58l13.66,13.66h25.92c.73-1.49,2.27-2.52,4.04-2.52,2.49,0,4.51,2.02,4.51,4.52s-2.02,4.51-4.51,4.51Zm-125.29,39.85c5.26,4.75,11.09,8.88,17.38,12.27l22.16-22.16v-29.65l-14.24,14.24-.59,.59-24.71,24.71Zm61.2-4.23v11.2c1.49,.72,2.51,2.26,2.51,4.03,0,2.49-2.02,4.51-4.51,4.51s-4.52-2.02-4.52-4.51c0-1.77,1.03-3.31,2.52-4.03V104.39l-13.66,13.66v35.3l-22.41,22.41c11.52,5.52,24.43,8.61,38.06,8.61,8.8,0,17.3-1.29,25.33-3.69l-23.31-23.32Z"/>
      <path class="cls-2" d="M91.11,97.57c1.78-.97,2.5-1.94,2.91-2.9,.38-.97,.32-1.94-.08-2.9-.39-.97-1.12-1.94-2.21-2.9-1.18-.97-2.56-1.94-4.98-2.9h18.71c-2.42,.97-3.8,1.94-4.98,2.9-1.09,.97-1.82,1.94-2.21,2.9-.4,.97-.46,1.94-.08,2.9,.42,.97,1.14,1.94,2.91,2.9h-10Z"/>
      <g>
        <path class="cls-1" d="M137.76,72.26c-11.48,8.98-25.93,14.33-41.65,14.33s-30.17-5.36-41.66-14.34c-15.83-12.38-26.01-31.66-26.01-53.32,23.74,0,36.28,4.23,47.6,12.9,8.61,6.6,14.43,16.26,20.08,24.97,9.83,15.17,19.11,27.43,41.65,15.46Z"/>
        <path class="cls-5" d="M163.77,18.93c0,21.65-10.17,40.93-26,53.32,0,0-.01,0-.01,.01-22.54,11.97-31.82-.29-41.65-15.46,5.64-8.71,11.46-18.37,20.07-24.97,11.33-8.67,23.85-12.9,47.6-12.9Z"/>
      </g>
    </g>
    <path class="cls-3" d="M168.18,32.62c-.23,1.24-.5,2.46-.8,3.68,13.62,16.19,21.82,37.05,21.82,59.8,0,51.34-41.76,93.1-93.1,93.1S3,147.44,3,96.1c0-22.76,8.21-43.63,21.83-59.82-.3-1.22-.56-2.45-.79-3.69C9.09,49.54,0,71.78,0,96.1c0,52.99,43.11,96.1,96.1,96.1s96.1-43.11,96.1-96.1c0-24.3-9.07-46.54-24.02-63.48ZM96.1,3c16.52,0,32.04,4.32,45.5,11.9,1.53-.27,3.1-.5,4.73-.69C131.71,5.2,114.5,0,96.1,0S60.49,5.2,45.87,14.2c1.63,.2,3.21,.43,4.74,.7,13.46-7.58,28.98-11.9,45.49-11.9Z"/>
  </g>
</svg>
